# xmcd
#
# Track frame offsets:
#	150
#	13240
#	26079
#	38324
#	51222
#	64763
#	79089
#	92141
#	104972
#	118351
#	132276
#	144791
#	156462
#	169945
#	183956
#	196707
#	208190
#	222483
#	237768
#	251322
#	264544
#	277095
#	291620
#	304069
#	317156
#
# Disc length: 4402 seconds
#
# Revision: 0
# Processed by: cddbd v1.5.1PL0 Copyright (c) Steve Scherf et al.
# Submitted via: dBpowerAMP V4.0
#
DISCID=7f113019
DTITLE=frankie marvin - the golden age of frankie marvin ccd 239
DYEAR=1900
DGENRE=hillbilly
TTITLE0=honey, do you think it's wrong
TTITLE1=popcorn poppin' mama
TTITLE2=baby, that won't get it
TTITLE3=wine, women and song
TTITLE4=guitar polka
TTITLE5=it's a sin
TTITLE6=honey, could be
TTITLE7=have i been mean to you
TTITLE8=happy go lucky boy
TTITLE9=oklahoma, land of the sunny west
TTITLE10=don't send my boy to prison
TTITLE11=the girl i left behind
TTITLE12=mother's song of love
TTITLE13=oklahoma blues
TTITLE14=in the jailhouse now
TTITLE15=cowboy's heaven
TTITLE16=sheriff's sale
TTITLE17=cuddled in my mammy's arms
TTITLE18=living in the mountains
TTITLE19=she's old and bent, but she just keeps hoofin' along
TTITLE20=my lulu
TTITLE21=the two-gun cowboy
TTITLE22=mountain boy
TTITLE23=i'm gonna yodel my way to heaven
TTITLE24=EXTRA TRACK?
EXTD=
EXTT0=
EXTT1=
EXTT2=
EXTT3=
EXTT4=
EXTT5=
EXTT6=
EXTT7=
EXTT8=
EXTT9=
EXTT10=
EXTT11=
EXTT12=
EXTT13=
EXTT14=
EXTT15=
EXTT16=
EXTT17=
EXTT18=
EXTT19=
EXTT20=
EXTT21=
EXTT22=
EXTT23=
EXTT24=
PLAYORDER=
